:SAMPLES-PER-SECOND 30
:FRAME-RANGE 1-2009
:FULLY-SPECIFIED
:DEGREES
754
root  -16.3147 39.506 -71.6782 -0.249893 -13.4045 -1.57761
RightUpLeg  -4.38744 -7.06734 -2.13774
RightLeg  18.8541 5.8872 2.45331
RightFoot  -11.9967 -0.0674368 2.42711
RightToes  2.96424e-010 1.2921e-014 -6.02303e-014
Spine  -3.8462 1.0333 13.5496
Spine1  7.44605 1.54497 -2.77231
HEad  17.2515 9.96525 -5.49966
LeftShoulder1  1.47605 -2.21259 -20.5789
LeftArm  1.34141 -2.82313 -58.7347
LeftForeArm  35.1789 -0.569073 -13.4582
LeftHand  -0.0682384 4.24577 5.03969
RightShoulder  2.74521 4.64229 28.6657
RightArm  12.7132 18.8805 72.2471
RightForeArm  -13.5676 22.8322 5.80706
RightHand  -169.49 -59.4623 173.68
LeftUpLeg  -26.1878 7.38678 -2.19531
LeftLeg  53.5542 5.48634 8.3929
LeftFoot  -1.56215 0.375293 -4.2771
LeftToes  -1.2485e-010 1.20979e-011 -1.0929e-011
755
root  -16.6323 39.5504 -70.632 0.19133 -12.2879 -1.18054
RightUpLeg  -2.37114 -6.66622 -2.35486
RightLeg  17.5426 4.48346 1.70976
RightFoot  -13.1085 -0.0456764 2.79845
RightToes  2.96424e-010 1.2921e-014 -6.02303e-014
Spine  -4.43157 1.39968 13.0073
Spine1  7.68413 1.80667 -3.0594
HEad  16.6138 10.5354 -5.94663
LeftShoulder1  1.42608 -1.98847 -20.7795
LeftArm  0.00318971 -0.479915 -57.5761
LeftForeArm  36.0933 0.759013 -13.3813
LeftHand  -0.0560734 4.52203 4.81269
RightShoulder  2.74102 4.61726 28.7232
RightArm  11.2896 18.7974 72.1957
RightForeArm  -15.7057 24.5302 6.01202
RightHand  -178.367 -61.9498 178.427
LeftUpLeg  -26.9288 8.75794 -3.62917
LeftLeg  44.4641 8.50548 9.2266
LeftFoot  -3.03051 0.2461 -3.13679
LeftToes  -1.2485e-010 1.20979e-011 -1.0929e-011
756
root  -16.896 39.5527 -69.5848 0.544693 -10.8984 -1.15253
RightUpLeg  0.0369022 -6.66058 -2.39423
RightLeg  15.9167 3.04955 1.3289
RightFoot  -14.0222 -0.0237144 3.04698
RightToes  2.96424e-010 1.2921e-014 -6.02303e-014
Spine  -5.00206 1.51118 12.697
Spine1  8.06231 1.83581 -3.41661
HEad  16.181 11.4964 -6.06924
LeftShoulder1  1.39929 -1.8595 -20.9431
LeftArm  -0.978776 1.42056 -56.3902
LeftForeArm  36.7041 3.15168 -13.4071
LeftHand  -0.0510665 4.65025 4.75674
RightShoulder  2.7345 4.56889 28.856
RightArm  8.91465 19.274 72.1913
RightForeArm  -20.0643 24.2905 6.14835
RightHand  163.296 -65.7501 -170.265
LeftUpLeg  -26.4952 9.4482 -4.74792
LeftLeg  33.6989 11.6313 8.57348
LeftFoot  -0.997852 0.0828527 -0.849107
LeftToes  -1.2485e-010 1.20979e-011 -1.0929e-011
757
root  -17.1062 39.5063 -68.5222 1.04037 -9.28778 -1.27156
RightUpLeg  2.35239 -6.35609 -2.13566
RightLeg  14.2515 1.185 0.869182
RightFoot  -14.88 0.00296653 3.35956
RightToes  2.96424e-010 1.2921e-014 -6.02303e-014
Spine  -5.65867 1.52741 12.0584
Spine1  8.33448 1.69781 -3.31966
HEad  15.9958 12.2134 -5.85638
LeftShoulder1  1.35057 -1.64962 -21.1175
LeftArm  -2.69813 3.13104 -55.433
LeftForeArm  37.9381 6.31023 -13.0534
LeftHand  -0.0307128 5.2106 4.63565
RightShoulder  2.71739 4.48517 29.0126
RightArm  7.01193 19.6441 71.7998
RightForeArm  -22.1676 23.344 6.13694
RightHand  148.385 -68.7505 -159.517
LeftUpLeg  -25.2595 9.57412 -5.73992
LeftLeg  22.0895 15.9366 7.30183
LeftFoot  0.720243 0.027608 -0.302625
LeftToes  -1.2485e-010 1.20979e-011 -1.0929e-011
758
root  -17.235 39.402 -67.4756 1.76721 -7.82861 -1.48679
RightUpLeg  4.05671 -6.46015 -1.97732
RightLeg  13.2524 -0.0685605 0.82608
RightFoot  -15.851 0.0271462 3.41636
RightToes  2.96424e-010 1.2921e-014 -6.02303e-014
Spine  -6.32251 1.61827 11.4928
Spine1  8.43904 1.67229 -3.25791
HEad  15.7563 12.9059 -5.42548
LeftShoulder1  1.30665 -1.45363 -21.3293
LeftArm  -4.07194 4.77934 -54.4521
LeftForeArm  38.5655 7.75192 -12.9276
LeftHand  -0.0101935 5.85888 4.19423
RightShoulder  2.6876 4.4058 28.9832
RightArm  1.22957 20.0122 71.0803
RightForeArm  -20.1389 20.7397 6.78637
RightHand  131.273 -72.0902 -145.222
LeftUpLeg  -23.3181 4.74567 -4.36251
LeftLeg  10.3623 25.3196 3.8721
LeftFoot  1.08943 0.00454896 -0.102304
LeftToes  -1.2485e-010 1.20979e-011 -1.0929e-011
759
root  -17.298 39.2639 -66.4047 2.30559 -6.35664 -1.9679
RightUpLeg  5.76149 -6.7238 -1.66476
RightLeg  12.785 -0.810753 0.826137
RightFoot  -16.7588 0.0879018 4.25718
RightToes  2.96424e-010 1.2921e-014 -6.02303e-014
Spine  -6.88633 1.67824 11.0456
Spine1  8.81339 1.65897 -3.13314
HEad  15.0385 13.362 -5.01035
LeftShoulder1  1.28582 -1.38007 -21.3143
LeftArm  -6.73402 7.13201 -53.8598
LeftForeArm  39.9882 7.62285 -12.2106
LeftHand  0.00795732 6.52478 3.94747
RightShoulder  2.62444 4.21848 29.0091
RightArm  -7.72066 20.4178 69.6416
RightForeArm  -14.1718 16.677 8.02971
RightHand  106.026 -75.5056 -121.387
LeftUpLeg  -21.238 -0.545107 -3.24774
LeftLeg  -1.1112 34.4301 0.0530578
LeftFoot  0.873287 -0.117539 1.04933
LeftToes  -1.2485e-010 1.20979e-011 -1.0929e-011
760
root  -17.3041 39.0417 -65.2575 2.77637 -4.76906 -2.84746
RightUpLeg  6.95642 -7.59479 -1.05015
RightLeg  13.7927 -0.959244 0.788373
RightFoot  -17.7951 0.173869 5.2211
RightToes  2.96424e-010 1.2921e-014 -6.02303e-014
Spine  -7.05554 1.61915 10.8298
Spine1  8.56689 1.43686 -2.703
HEad  13.8786 13.5761 -4.73502
LeftShoulder1  1.21844 -1.10897 -21.4821
LeftArm  -7.00957 9.11151 -53.0079
LeftForeArm  39.8185 7.67344 -12.5162
LeftHand  0.0250307 6.90044 4.37295
RightShoulder  2.58649 4.02237 29.4322
RightArm  -16.0826 20.4511 67.4512
RightForeArm  -6.50496 11.5444 8.48611
RightHand  64.172 -75.8071 -79.7181
LeftUpLeg  -20.4724 -2.89537 -3.3973
LeftLeg  -6.93572 36.9613 -0.608555
LeftFoot  -1.78758 -0.110608 1.45296
LeftToes  -1.2485e-010 1.20979e-011 -1.0929e-011
761
root  -17.2907 38.8528 -64.093 2.88144 -3.04175 -3.43999
RightUpLeg  8.01037 -9.36703 -0.914233
RightLeg  15.8999 0.338542 0.575839
RightFoot  -18.5576 0.335579 7.31093
RightToes  2.96424e-010 1.2921e-014 -6.02303e-014
Spine  -6.99959 1.48405 9.72442
Spine1  8.77779 1.17848 -1.87967
HEad  12.3038 13.7394 -4.18368
LeftShoulder1  1.17426 -0.989653 -21.2024
LeftArm  -8.27045 11.505 -52.6392
LeftForeArm  39.6687 7.62085 -12.1549
LeftHand  0.00620051 6.78986 3.23686
RightShoulder  2.56455 3.85058 29.9828
RightArm  -20.1922 20.4523 64.999
RightForeArm  2.56817 5.56672 6.98373
RightHand  22.5882 -65.298 -36.7764
LeftUpLeg  -20.9024 -2.51375 -3.82806
LeftLeg  -3.75528 35.8163 0.617022
LeftFoot  -1.9174 -0.301823 3.80123
LeftToes  -1.2485e-010 1.20979e-011 -1.0929e-011
762
root  -17.2305 38.7395 -62.9415 2.63521 -1.38522 -2.80629
RightUpLeg  8.23486 -9.98223 -2.12951
RightLeg  20.1928 1.84993 0.541522
RightFoot  -18.8246 0.548165 10.3145
RightToes  2.96424e-010 1.2921e-014 -6.02303e-014
Spine  -6.50842 1.3937 7.19418
Spine1  8.98594 1.15361 -1.34433
HEad  10.6153 13.853 -3.59353
LeftShoulder1  1.18393 -1.05285 -21.0164
LeftArm  -8.44262 13.9039 -52.1884
LeftForeArm  39.3527 7.62802 -12.1596
LeftHand  0.00776771 6.86369 3.26341
RightShoulder  2.59737 3.84161 30.4972
RightArm  -22.494 20.0462 62.3903
RightForeArm  17.5032 -1.74003 4.17554
RightHand  4.98547 -27.9453 -24.7332
LeftUpLeg  -21.358 -2.94153 -5.18045
LeftLeg  0.642561 35.6721 3.05764
LeftFoot  2.11276 -0.83953 6.99949
LeftToes  -1.2485e-010 1.20979e-011 -1.0929e-011
763
root  -16.9973 38.6156 -61.7349 2.30867 0.0205078 -1.6832
RightUpLeg  6.53245 -9.30138 -4.5206
RightLeg  28.4106 4.00889 2.12148
RightFoot  -17.8164 0.698446 14.4246
RightToes  2.96424e-010 1.2921e-014 -6.02303e-014
Spine  -6.26453 1.43617 5.40542
Spine1  9.21862 1.26534 -1.91967
HEad  10.3033 14.2528 -3.50668
LeftShoulder1  1.12351 -0.749066 -21.5958
LeftArm  -8.20955 16.2365 -50.992
LeftForeArm  39.9288 7.60933 -12.115
LeftHand  -0.00135075 6.98488 2.43893
RightShoulder  2.70356 4.05774 30.8831
RightArm  -26.0245 18.588 59.8032
RightForeArm  30.8063 -5.99233 1.28375
RightHand  -0.94388 -1.87738 -30.6653
LeftUpLeg  -21.216 -3.61001 -6.98836
LeftLeg  4.58747 34.9463 5.26989
LeftFoot  4.76437 -1.19968 8.25876
LeftToes  -1.2485e-010 1.20979e-011 -1.0929e-011
764
root  -16.6956 38.5811 -60.5888 2.59464 2.65192 -0.331039
RightUpLeg  2.6987 -9.30384 -7.64359
RightLeg  38.8491 7.11225 5.84708
RightFoot  -13.0988 0.209109 19.3051
RightToes  2.96424e-010 1.2921e-014 -6.02303e-014
Spine  -6.15043 1.20443 3.79249
Spine1  8.80355 1.0473 -2.24107
HEad  10.7902 14.4579 -4.45216
LeftShoulder1  1.02157 -0.384624 -21.5661
LeftArm  -7.27908 17.0553 -50.7969
LeftForeArm  39.6467 7.68056 -12.5395
LeftHand  -0.00227914 6.94221 2.42208
RightShoulder  2.65174 3.89852 30.9739
RightArm  -31.5336 15.2312 57.3048
RightForeArm  39.1809 -5.29192 -1.9835
RightHand  -0.882087 -2.11645 -30.7442
LeftUpLeg  -20.7686 -3.43291 -9.03645
LeftLeg  7.11002 31.9534 4.73758
LeftFoot  2.92072 -1.24772 9.80511
LeftToes  -1.2485e-010 1.20979e-011 -1.0929e-011
765
root  -16.4096 38.5139 -59.5218 2.9687 6.4476 0.828796
RightUpLeg  -3.64061 -7.43974 -9.01137
RightLeg  51.6601 5.53709 7.11347
RightFoot  -4.66459 -1.03376 17.0563
RightToes  2.96424e-010 1.2921e-014 -6.02303e-014
Spine  -6.07943 0.866799 2.37415
Spine1  8.91062 0.647191 -2.28411
HEad  10.481 14.285 -6.51916
LeftShoulder1  0.945186 -0.127291 -21.4052
LeftArm  -7.17988 16.7468 -51.2239
LeftForeArm  39.2667 7.69074 -12.5553
LeftHand  -0.00575029 6.67351 2.48489
RightShoulder  2.35758 3.0673 31.1452
RightArm  -35.1332 9.08878 54.1808
RightForeArm  45.2792 -4.89321 -3.50745
RightHand  -0.776963 -2.78226 -33.8796
LeftUpLeg  -20.0988 -4.0928 -11.252
LeftLeg  9.33033 28.6655 4.79908
LeftFoot  1.03939 -1.15811 10.5861
LeftToes  -1.2485e-010 1.20979e-011 -1.0929e-011
